<?xml version="1.0" encoding="UTF-8" standalone="no"?>
<svg width="730px" height="483px" viewBox="0 0 730 483" version="1.1" xmlns="http://www.w3.org/2000/svg" xmlns:xlink="http://www.w3.org/1999/xlink">
    <!-- Generator: Sketch 3.8.3 (29802) - http://www.bohemiancoding.com/sketch -->
    <title>Gateway Logo</title>
    <desc>Created with Sketch.</desc>
    <defs>
        <filter x="-50%" y="-50%" width="200%" height="200%" filterUnits="objectBoundingBox" id="filter-1">
            <feOffset dx="-3" dy="4" in="SourceAlpha" result="shadowOffsetOuter1"></feOffset>
            <feColorMatrix values="0 0 0 0 0.289271663   0 0 0 0 0.352031758   0 0 0 0 0.399101828  0 0 0 1 0" type="matrix" in="shadowOffsetOuter1" result="shadowMatrixOuter1"></feColorMatrix>
            <feMerge>
                <feMergeNode in="shadowMatrixOuter1"></feMergeNode>
                <feMergeNode in="SourceGraphic"></feMergeNode>
            </feMerge>
        </filter>
    </defs>
    <g id="SignUp-Copy" stroke="none" stroke-width="1" fill="none" fill-rule="evenodd">
        <g id="iPad-Pro-Landscape" transform="translate(0.000000, -17.000000)" fill="#36424B">
            <g id="Gateway-Logo-+-Gateway" transform="translate(-203.000000, -25.000000)">
                <g id="Gateway-Logo" filter="url(#filter-1)" transform="translate(508.500000, 331.000000) rotate(4.000000) translate(-508.500000, -331.000000) translate(59.000000, 31.000000)">
                    <path d="M245.050096,212.451296 L244.004736,213.533798 C237.941286,210.632622 231.149468,209.007888 223.977861,209.007888 C198.337015,209.007888 177.551003,229.776812 177.551003,255.396579 C177.551003,263.15234 179.455892,270.463556 182.823697,276.888618 L181.207253,278.562495 C182.199737,280.717308 182.753229,283.115694 182.753229,285.643249 C182.753229,295.007785 175.155527,302.599241 165.783286,302.599241 C163.468709,302.599241 161.262361,302.136241 159.251951,301.297877 L157.936089,302.660491 C157.082212,301.499166 156.258579,300.314261 155.46635,299.106934 C151.719695,296.236351 149.205829,291.839639 148.855426,286.846707 C144.599023,277.002899 142.240435,266.14827 142.240435,254.743217 C142.240435,209.998836 178.542766,173.726348 223.323962,173.726348 C234.778604,173.726348 245.678481,176.099628 255.557932,180.380912 C258.329752,180.982602 260.848917,182.261017 262.933426,184.034305 C264.984405,185.183789 266.980277,186.419782 268.916091,187.737335 L267.195813,189.518735 C268.292718,191.76282 268.908322,194.284762 268.908322,196.950368 C268.908322,206.314904 261.31062,213.90636 251.93838,213.90636 C249.486012,213.90636 247.155143,213.386592 245.050096,212.451296 Z" id="Oval-7"></path>
                    <path d="M722.377366,202.389162 L722.805782,203.504305 L722.805782,203.504305 C728.134126,203.266579 733.597751,204.185325 738.834957,206.40656 C757.583211,214.358179 766.330309,235.990208 758.372147,254.723049 C755.970028,260.377436 752.320467,265.121372 747.879793,268.770639 L748.541431,270.492848 L748.541431,270.492848 C747.128995,271.766467 745.965307,273.36059 745.17295,275.225732 C742.264083,282.072959 745.461322,289.979897 752.314183,292.886372 C754.027177,293.612897 755.806441,293.958203 757.557243,293.960532 L758.084848,295.333861 C759.052106,294.758865 760.00507,294.158185 760.942594,293.532283 C764.573776,292.595245 767.777615,290.160014 769.584758,286.617913 C775.754726,280.740223 780.851023,273.534895 784.393727,265.195668 C798.292488,232.479157 783.015867,194.699275 750.272438,180.811941 C741.896952,177.25968 733.189902,175.614773 724.636298,175.681423 C722.422679,175.261787 720.183589,175.415316 718.108594,176.065483 C716.254369,176.269657 714.41353,176.553961 712.591213,176.916318 L713.294949,178.748106 C711.792873,180.049652 710.556979,181.704734 709.727765,183.656634 C706.818898,190.503861 710.016137,198.410799 716.868997,201.317274 C718.668594,202.08053 720.541329,202.423045 722.377366,202.389162 L722.377366,202.389162 Z" id="Oval-9"></path>
                    <path d="M809.29124,495.898722 C826.015839,465.922867 827.659019,428.35044 810.355186,395.806663 C783.249227,344.827767 719.914943,325.493008 668.894104,352.621269 C666.277022,354.012797 663.743172,355.499544 661.29456,357.074962 L655.350272,272.067676 C739.197575,242.414008 834.340412,277.692323 877.322972,358.53076 C910.314796,420.579358 903.869476,493.094808 866.770799,547.388839 C866.771903,547.528753 866.772456,547.668797 866.772456,547.808971 C866.772456,576.622927 843.394911,599.981254 814.557248,599.981254 C785.719585,599.981254 762.34204,576.622927 762.34204,547.808971 C762.34204,520.771032 782.926538,498.536908 809.29124,495.898722 Z M814.557248,570.667263 C827.191921,570.667263 837.434347,560.433257 837.434347,547.808971 C837.434347,535.184685 827.191921,524.950679 814.557248,524.950679 C801.922575,524.950679 791.68015,535.184685 791.68015,547.808971 C791.68015,560.433257 801.922575,570.667263 814.557248,570.667263 Z" id="Oval-8"></path>
                    <path d="M717.569831,55.2041923 C732.615504,76.4612186 741.455957,102.414413 741.455957,130.430707 C741.455957,202.465598 683.012094,260.861415 610.917936,260.861415 C538.823778,260.861415 480.379916,202.465598 480.379916,130.430707 C480.379916,58.3958168 538.823778,-3.77475828e-13 610.917936,-3.77475828e-13 C621.721377,-3.77475828e-13 632.218293,1.31131133 642.257953,3.78332718 C642.944792,3.94134873 643.624058,4.11455949 644.295197,4.30249808 C647.290247,5.09166835 650.243168,5.98451905 653.149882,6.97697574 L652.74208,7.65567368 C663.694845,13.4366828 670.965426,23.6195123 670.965426,35.216291 C670.965426,53.2250136 653.432267,67.8239678 631.804019,67.8239678 C630.033617,67.8239678 628.290653,67.7261489 626.582499,67.5366478 L626.582499,67.8239678 L616.589321,67.8239678 L616.504661,67.9648664 C615.089628,67.8714278 613.662019,67.8239678 612.223316,67.8239678 C576.897179,67.8239678 548.259686,96.4379181 548.259686,131.735014 C548.259686,167.032111 576.897179,195.646061 612.223316,195.646061 C647.549454,195.646061 676.186946,167.032111 676.186946,131.735014 C676.186946,121.498468 673.77835,111.824016 669.496529,103.246591 L670.076587,102.281213 C665.726806,96.7411115 663.133144,89.7588707 663.133144,82.1713456 C663.133144,64.162623 677.74411,49.5636688 695.767649,49.5636688 C697.707936,49.5636688 699.608675,49.7328584 701.455893,50.0572778 L702.566919,48.2082195 L717.569831,55.2041923 Z" id="Oval-3"></path>
                    <path d="M430.623714,95.9593493 L431.41963,94.634723 C413.269261,82.6362356 391.509794,75.6498103 368.117218,75.6498103 C304.674359,75.6498103 253.24376,127.038129 253.24376,190.428833 C253.24376,253.819536 304.674359,305.207855 368.117218,305.207855 C431.560077,305.207855 482.990676,253.819536 482.990676,190.428833 C482.990676,166.012164 475.360347,143.37619 462.352273,124.77164 L409.29181,213.07907 C408.738543,214.081033 408.149708,215.060642 407.527006,216.016198 L402.801536,223.8807 C401.435231,226.154613 399.118053,227.505569 396.664236,227.730464 C388.75086,233.785781 378.854576,237.383887 368.117218,237.383887 C342.163321,237.383887 321.123531,216.361393 321.123531,190.428833 C321.123531,164.496272 342.163321,143.473778 368.117218,143.473778 C378.733666,143.473778 388.527875,146.991306 396.396153,152.923577 L397.022953,151.880406 C401.926699,154.82411 407.668269,156.516849 413.805525,156.516849 C431.829065,156.516849 446.44003,141.917895 446.44003,123.909172 C446.44003,112.047512 440.101275,101.665131 430.623714,95.9593493 Z" id="Oval-1"></path>
                    <path d="M163.172526,532.157286 C214.359378,532.157286 255.85452,490.696256 255.85452,439.551484 C255.85452,388.406712 214.359378,346.945682 163.172526,346.945682 C111.985673,346.945682 70.4905311,388.406712 70.4905311,439.551484 C70.4905311,490.696256 111.985673,532.157286 163.172526,532.157286 Z M161.867145,599.981254 C251.263901,599.981254 323.734291,527.570441 323.734291,438.247177 C323.734291,348.923912 251.263901,276.5131 161.867145,276.5131 C72.4703895,276.5131 4.26325641e-14,348.923912 4.26325641e-14,438.247177 C4.26325641e-14,527.570441 72.4703895,599.981254 161.867145,599.981254 Z" id="Oval-1"></path>
                    <path d="M676.186946,542.591743 C715.117792,542.591743 746.677477,511.058002 746.677477,472.159161 C746.677477,433.26032 715.117792,401.726579 676.186946,401.726579 C637.256101,401.726579 605.696415,433.26032 605.696415,472.159161 C605.696415,511.058002 637.256101,542.591743 676.186946,542.591743 Z M676.891852,507.375452 C695.967966,507.375452 711.432212,491.923919 711.432212,472.863487 C711.432212,453.803054 695.967966,438.351521 676.891852,438.351521 C657.815737,438.351521 642.351491,453.803054 642.351491,472.863487 C642.351491,491.923919 657.815737,507.375452 676.891852,507.375452 Z" id="Oval-4"></path>
                    <path d="M408.584004,550.417585 C438.142609,550.417585 462.104593,526.4753 462.104593,496.940995 C462.104593,467.40669 438.142609,443.464405 408.584004,443.464405 C379.025399,443.464405 355.063416,467.40669 355.063416,496.940995 C355.063416,526.4753 379.025399,550.417585 408.584004,550.417585 Z M409.11921,523.67929 C423.602926,523.67929 435.344298,511.947571 435.344298,497.475761 C435.344298,483.003951 423.602926,471.272232 409.11921,471.272232 C394.635494,471.272232 382.894122,483.003951 382.894122,497.475761 C382.894122,511.947571 394.635494,523.67929 409.11921,523.67929 Z" id="Oval-5"></path>
                    <path d="M247.487558,520.360624 C237.611013,514.431076 234.414404,501.625769 240.352828,491.750697 L487.744487,80.3603111 C493.680629,70.4890329 506.525452,67.3093032 516.375889,73.2231774 L538.379452,86.4333829 C548.255997,92.362931 551.452605,105.168238 545.514182,115.04331 L298.122523,526.433696 C292.186381,536.304974 279.341558,539.484704 269.491121,533.57083 L247.487558,520.360624 L247.487558,520.360624 Z" id="Rectangle-14"></path>
                    <path d="M663.351901,435.638563 C651.829594,435.638563 642.488919,426.272298 642.488919,414.782764 L642.488919,292.15167 C642.488919,280.63333 651.860051,271.295871 663.351901,271.295871 L689.021992,271.295871 C700.544299,271.295871 709.884974,280.662136 709.884974,292.15167 L709.884974,414.782764 C709.884974,426.301104 700.513841,435.638563 689.021992,435.638563 L663.351901,435.638563 L663.351901,435.638563 Z" id="Rectangle-17"></path>
                    <path d="M404.842257,288.886072 C398.561308,298.549935 401.311219,311.472268 411.004132,317.761744 L615.716281,450.594079 C625.400339,456.87781 638.331549,454.154575 644.623484,444.47381 L654.857383,428.727942 C661.138332,419.06408 658.388421,406.141747 648.695508,399.85227 L443.983359,267.019935 C434.299301,260.736204 421.368091,263.45944 415.076156,273.140205 L404.842257,288.886072 L404.842257,288.886072 Z" id="Rectangle-16"></path>
                    <path d="M425.084758,468.22766 C418.251609,464.125265 416.051518,455.246706 420.138072,448.451129 L471.705913,362.698383 C475.807083,355.878502 484.685004,353.68389 491.504249,357.777938 L491.504249,357.777938 C498.337398,361.880333 500.537488,370.758892 496.450934,377.554469 L444.883093,463.307215 C440.781923,470.127097 431.904002,472.321708 425.084758,468.22766 L425.084758,468.22766 L425.084758,468.22766 Z" id="Rectangle-19"></path>
                    <path d="M611.348971,532.080387 L611.997116,529.275272 L612.970878,529.499898 L603.005528,519.426609 C596.575548,509.918357 589.37487,493.105553 588.612143,481.579628 L589.314646,465.143825 L589.056718,465.084326 C589.445066,464.372298 589.748398,463.584294 589.944058,462.737495 C590.917117,458.526177 588.85864,454.455418 585.346321,453.645202 C581.834001,452.834986 578.197883,455.592124 577.224824,459.803442 C577.029164,460.650242 576.956075,461.491358 576.992731,462.301425 L576.992731,462.301425 L576.665107,462.225849 L575.398371,467.708175 L575.743054,486.128199 C577.663884,497.448885 583.413165,514.967656 584.726928,517.219705 L579.221024,506.626114 C582.261851,512.476793 588.236276,522.228015 588.236276,522.228015 L584.726928,517.219705 C586.665087,519.985718 594.087969,529.509673 601.816387,538.072676 L605.722583,542.210351 C605.843711,542.333376 605.966467,542.455335 606.090801,542.576222 C606.600987,543.240467 607.240316,543.809334 607.982364,544.240574 C608.137933,544.364878 608.295188,544.487797 608.454058,544.609324 L608.454058,544.609324 L608.479054,544.501143 C608.893139,544.696021 609.334188,544.85009 609.798331,544.957158 C613.31065,545.767374 616.815298,543.579227 617.626181,540.069795 C618.437064,536.560363 616.247117,533.058596 612.734797,532.24838 C612.270655,532.141313 611.806647,532.086605 611.348971,532.080387 L611.348971,532.080387 Z M636.400809,551.218157 C636.450087,551.201005 636.499033,551.183591 636.547643,551.165913 L636.400518,551.219418 L636.400809,551.218157 L636.400809,551.218157 L636.400809,551.218157 Z" id="Wave-1"></path>
                    <path d="M574.070632,543.311413 L573.677588,544.777069 L572.234458,543.136358 C565.77694,535.359498 559.422689,526.4971 557.582322,523.665187 L560.914601,528.79282 C560.914601,528.79282 555.284407,518.839205 552.449787,512.886054 L557.582322,523.665187 C555.804988,520.352395 551.266339,504.812688 549.806483,494.853686 L549.939312,485.892814 C548.767179,484.101996 548.359651,481.631376 549.025494,479.148461 C550.145054,474.973639 553.875259,472.344975 557.35714,473.277175 C560.83902,474.209375 562.754059,478.349434 561.634499,482.524256 L563.291514,482.967887 L562.695912,490.79607 C563.182523,500.87887 568.939822,515.858369 574.122267,524.446359 L577.998552,528.664269 L577.191724,531.672913 C578.019366,531.562977 578.881996,531.610911 579.73875,531.840289 C583.220631,532.772489 585.286933,536.348488 584.353966,539.827506 C583.420999,543.306524 579.842058,545.371128 576.360178,544.438928 C575.503424,544.20955 574.732377,543.820101 574.070632,543.311413 L574.070632,543.311413 Z M608.130752,559.415508 C608.149119,559.409615 608.167464,559.403694 608.185788,559.397745 L608.130721,559.415623 L608.130752,559.415509 L608.130752,559.415508 L608.130752,559.415508 Z" id="Wave-2"></path>
                    <path d="M460.450861,553.356353 L460.818968,554.949486 L470.293959,544.831176 C473.052637,541.483223 476.740213,536.446688 478.678373,533.680674 L475.169024,538.688985 C476.684448,536.558708 480.396536,530.634633 482.515999,526.87715 L480.759885,530.10197 C482.80006,526.306774 485.053449,519.689327 486.125628,515.497983 L486.984967,486.625659 L485.271601,487.020896 C483.724538,484.21072 480.850155,482.59514 478.05422,483.240102 C475.258285,483.885064 473.383613,486.596148 473.226036,489.799547 L473.197209,489.806197 L473.828636,511.050717 C473.026055,515.321567 470.41038,521.770783 468.397329,525.594107 L455.795476,538.705017 L457.001281,538.426864 L457.575313,540.911224 C457.137245,540.921253 456.693638,540.975756 456.249909,541.078115 C452.73759,541.888331 450.547643,545.390098 451.358526,548.89953 C452.169409,552.408962 455.674056,554.597109 459.186376,553.786893 C459.630105,553.684534 460.052728,553.539217 460.450861,553.356353 L460.450861,553.356353 Z" id="Wave-3"></path>
                </g>
            </g>
        </g>
    </g>
</svg>