<?xml version="1.0" encoding="UTF-8" standalone="no"?>
<svg width="184px" height="125px" viewBox="0 0 184 125" version="1.1" xmlns="http://www.w3.org/2000/svg" xmlns:xlink="http://www.w3.org/1999/xlink">
    <!-- Generator: Sketch 3.8.3 (29802) - http://www.bohemiancoding.com/sketch -->
    <title>Gateway Logo + Gateway</title>
    <desc>Created with Sketch.</desc>
    <defs>
        <filter x="-50%" y="-50%" width="200%" height="200%" filterUnits="objectBoundingBox" id="filter-1">
            <feOffset dx="-3" dy="4" in="SourceAlpha" result="shadowOffsetOuter1"></feOffset>
            <feColorMatrix values="0 0 0 0 0.289271663   0 0 0 0 0.352031758   0 0 0 0 0.399101828  0 0 0 1 0" type="matrix" in="shadowOffsetOuter1" result="shadowMatrixOuter1"></feColorMatrix>
            <feMerge>
                <feMergeNode in="shadowMatrixOuter1"></feMergeNode>
                <feMergeNode in="SourceGraphic"></feMergeNode>
            </feMerge>
        </filter>
    </defs>
    <g id="Home-Desktop-Copy" stroke="none" stroke-width="1" fill="none" fill-rule="evenodd">
        <g id="iPad-Pro-Landscape" transform="translate(-275.000000, -30.000000)" fill="#2ABC9D">
            <g id="Gateway-Logo-+-Gateway" transform="translate(278.000000, 30.000000)">
                <g id="Gateway-Logo" filter="url(#filter-1)" transform="translate(0.696377, 0.536472)">
                    <path d="M48.9957889,42.4896176 L48.7867662,42.7060669 C47.5747593,42.1262657 46.2172605,41.8015775 44.7838841,41.8015775 C39.657053,41.8015775 35.5009353,45.9553625 35.5009353,51.0793158 C35.5009353,52.6290339 35.8811097,54.0900073 36.5533319,55.3741589 L36.2302511,55.708719 C36.4297912,56.140656 36.5411089,56.6216604 36.5411089,57.1286498 C36.5411089,59.001557 35.021965,60.5198482 33.1480059,60.5198482 C32.6834228,60.5198482 32.2406473,60.426531 31.8374208,60.2576279 L31.5761205,60.5282122 C31.4064088,60.2971901 31.2426782,60.0615057 31.085157,59.8213869 C30.3360217,59.2472703 29.8333796,58.3679277 29.7633173,57.3693414 C28.9122589,55.4005797 28.4406643,53.2296541 28.4406643,50.9486434 C28.4406643,41.9997672 35.6992362,34.7452696 44.6531384,34.7452696 C46.943469,34.7452696 49.1228756,35.2199256 51.0982503,36.0761823 C51.6524697,36.1965204 52.1561712,36.4522034 52.5729643,36.806861 C52.9828789,37.0366602 53.3817845,37.2837465 53.7686921,37.5471316 L53.4249145,37.9031237 C53.644429,38.352097 53.7676317,38.8567056 53.7676317,39.3900736 C53.7676317,41.2629808 52.2484878,42.781272 50.3745287,42.781272 C49.883623,42.781272 49.417066,42.6770808 48.9957889,42.4896176 Z" id="Oval-7"></path>
                    <path d="M144.437777,40.4778324 L144.523437,40.700861 L144.523437,40.700861 C145.588828,40.6533158 146.681268,40.8370651 147.728436,41.281312 C151.477108,42.8716359 153.226071,47.1980417 151.634854,50.9446098 C151.154556,52.0754872 150.424834,53.0242743 149.536931,53.7541278 L149.669224,54.0985696 L149.669224,54.0985696 C149.386811,54.3532934 149.154134,54.6721181 148.995704,55.0451464 C148.414082,56.4145918 149.053363,57.9959794 150.423578,58.5772744 C150.766087,58.7225795 151.121847,58.7916406 151.471916,58.7921063 L151.57741,59.0667721 C151.770811,58.9517731 151.961354,58.8316371 152.14881,58.7064566 C152.874856,58.519049 153.515457,58.0320028 153.876792,57.3235825 C155.110463,56.1480447 156.129457,54.7069789 156.837813,53.0391335 C159.616839,46.4958314 156.562312,38.9398551 150.015335,36.1623881 C148.340675,35.4519361 146.599719,35.1229547 144.889445,35.1362846 C144.446837,35.0523575 143.999136,35.0830632 143.584245,35.2130966 C143.213497,35.2539315 142.845425,35.3107921 142.481057,35.3832637 L142.621767,35.7496212 C142.32143,36.0099304 142.074316,36.3409468 141.908516,36.7313268 C141.326895,38.1007722 141.966176,39.6821598 143.33639,40.2634549 C143.696216,40.4161059 144.070665,40.4846091 144.437777,40.4778324 L144.437777,40.4778324 Z" id="Oval-9"></path>
                    <path d="M161.819116,99.1794346 C165.161822,93.1852493 165.489189,85.6720363 162.028749,79.1638958 C156.607558,68.9681168 143.942859,65.1000173 133.741354,70.5242539 C133.218945,70.8020238 132.713125,71.0987753 132.224294,71.4132049 L131.035508,54.4127639 C147.799923,48.4867698 166.822997,55.5442514 175.418812,71.7106288 C182.018335,84.122526 180.729492,98.6275546 173.308987,109.48556 C173.309168,109.51095 173.309259,109.536361 173.309259,109.561794 C173.309259,115.324585 168.63497,119.996251 162.868943,119.996251 C157.102915,119.996251 152.428626,115.324585 152.428626,109.561794 C152.428626,104.153146 156.546065,99.7056381 161.819116,99.1794346 Z M162.868943,114.133453 C165.395218,114.133453 167.443169,112.086651 167.443169,109.561794 C167.443169,107.036937 165.395218,104.990136 162.868943,104.990136 C160.342667,104.990136 158.294717,107.036937 158.294717,109.561794 C158.294717,112.086651 160.342667,114.133453 162.868943,114.133453 Z" id="Oval-8"></path>
                    <path d="M143.476564,11.0409 C146.484887,15.2922938 148.252499,20.4829095 148.252499,26.0861415 C148.252499,40.4931196 136.566776,52.172283 122.151707,52.172283 C107.736638,52.172283 96.0509149,40.4931196 96.0509149,26.0861415 C96.0509149,11.6791634 107.736638,0 122.151707,0 C124.311831,0 126.410667,0.262262265 128.418075,0.756665435 C128.555407,0.788269745 128.691225,0.822911898 128.825417,0.860499615 C129.424233,1.01832368 130.014626,1.19688119 130.595782,1.39535744 L130.514236,1.53107287 C132.704283,2.68726392 134.158071,4.7238611 134.158071,7.0432582 C134.158071,10.6450027 130.652355,13.5647936 126.327834,13.5647936 C125.973846,13.5647936 125.625344,13.5452298 125.283802,13.5073296 L125.283802,13.5647936 L123.283647,13.5647936 L123.266793,13.5928435 C122.984504,13.5742416 122.699714,13.5647936 122.412715,13.5647936 C115.349331,13.5647936 109.623327,19.2875836 109.623327,26.3470029 C109.623327,33.4064222 115.349331,39.1292122 122.412715,39.1292122 C129.476099,39.1292122 135.202103,33.4064222 135.202103,26.3470029 C135.202103,24.2999539 134.720632,22.3652954 133.864695,20.6499728 L133.980775,20.456784 C133.11079,19.3486771 132.592024,17.9520213 132.592024,16.4342691 C132.592024,12.8325246 135.513454,9.91273376 139.117222,9.91273376 C139.505934,9.91273376 139.886708,9.94670371 140.256733,10.0118353 L140.478441,9.64285214 L143.476564,11.0409 Z" id="Oval-3"></path>
                    <path d="M86.1025704,19.1920501 L86.2617342,18.9271572 C82.6325429,16.5273296 78.2816663,15.1299621 73.6042337,15.1299621 C60.9189726,15.1299621 50.6355366,25.4076258 50.6355366,38.0857666 C50.6355366,50.7639073 60.9189726,61.0415711 73.6042337,61.0415711 C86.2894948,61.0415711 96.5729307,50.7639073 96.5729307,38.0857666 C96.5729307,33.203127 95.0476968,28.6765249 92.4474361,24.9559146 L81.8848604,42.5349927 C81.873654,42.5536432 81.8623259,42.5721756 81.8508778,42.5905896 C80.2551032,45.5023899 77.1603694,47.4767775 73.6042337,47.4767775 C68.4148087,47.4767775 64.2079485,43.2722787 64.2079485,38.0857666 C64.2079485,32.8992544 68.4148087,28.6947556 73.6042337,28.6947556 C75.7265426,28.6947556 77.6845128,29.3979784 79.2575964,30.584 L79.3828834,30.3754874 C80.3635937,30.9645943 81.5119675,31.3033698 82.7395109,31.3033698 C86.3432783,31.3033698 89.2647089,28.3835789 89.2647089,24.7818344 C89.2647089,22.4096274 87.9974221,20.333245 86.1025704,19.1920501 Z" id="Oval-1"></path>
                    <path d="M32.6259901,106.431457 C42.8606894,106.431457 51.1575525,98.1392512 51.1575525,87.9102968 C51.1575525,77.6813423 42.8606894,69.3891363 32.6259901,69.3891363 C22.3912908,69.3891363 14.0944277,77.6813423 14.0944277,87.9102968 C14.0944277,98.1392512 22.3912908,106.431457 32.6259901,106.431457 Z M32.3649822,119.996251 C50.2396683,119.996251 64.7299644,105.514088 64.7299644,87.6494354 C64.7299644,69.7847825 50.2396683,55.3026199 32.3649822,55.3026199 C14.4902961,55.3026199 0,69.7847825 0,87.6494354 C0,105.514088 14.4902961,119.996251 32.3649822,119.996251 Z" id="Oval-1"></path>
                    <path d="M135.202103,108.518349 C142.98624,108.518349 149.296531,102.2116 149.296531,94.4318321 C149.296531,86.652064 142.98624,80.3453157 135.202103,80.3453157 C127.417966,80.3453157 121.107675,86.652064 121.107675,94.4318321 C121.107675,102.2116 127.417966,108.518349 135.202103,108.518349 Z M135.343047,101.47509 C139.157275,101.47509 142.249317,98.3847837 142.249317,94.5726973 C142.249317,90.7606109 139.157275,87.6703043 135.343047,87.6703043 C131.52882,87.6703043 128.436778,90.7606109 128.436778,94.5726973 C128.436778,98.3847837 131.52882,101.47509 135.343047,101.47509 Z" id="Oval-4"></path>
                    <path d="M81.6954792,110.083517 C87.6056577,110.083517 92.396804,105.29506 92.396804,99.388199 C92.396804,93.481338 87.6056577,88.692881 81.6954792,88.692881 C75.7853008,88.692881 70.9941545,93.481338 70.9941545,99.388199 C70.9941545,105.29506 75.7853008,110.083517 81.6954792,110.083517 Z M81.8024925,104.735858 C84.6984799,104.735858 87.0461416,102.389514 87.0461416,99.4951522 C87.0461416,96.6007903 84.6984799,94.2544464 81.8024925,94.2544464 C78.906505,94.2544464 76.5588433,96.6007903 76.5588433,99.4951522 C76.5588433,102.389514 78.906505,104.735858 81.8024925,104.735858 Z" id="Oval-5"></path>
                    <path d="M49.4845966,104.072125 C47.5098031,102.886215 46.8706482,100.325154 48.058023,98.3501394 L97.5234449,16.0720622 C98.7103635,14.0978066 101.278658,13.4618606 103.248231,14.6446355 L107.647796,17.2866766 C109.622589,18.4725862 110.261744,21.0336475 109.074369,23.008662 L59.6089473,105.286739 C58.4220286,107.260995 55.8537344,107.896941 53.8841609,106.714166 L49.4845966,104.072125 L49.4845966,104.072125 Z" id="Rectangle-14"></path>
                    <path d="M132.635764,87.1277125 C130.331904,87.1277125 128.464256,85.2544596 128.464256,82.9565528 L128.464256,58.430334 C128.464256,56.1266661 130.337994,54.2591743 132.635764,54.2591743 L137.768442,54.2591743 C140.072302,54.2591743 141.93995,56.1324272 141.93995,58.430334 L141.93995,82.9565528 C141.93995,85.2602207 140.066212,87.1277125 137.768442,87.1277125 L132.635764,87.1277125 L132.635764,87.1277125 Z" id="Rectangle-17"></path>
                    <path d="M80.947325,57.7772145 C79.691463,59.7099869 80.2413017,62.2944536 82.1793784,63.5523488 L123.111125,90.1188158 C125.047432,91.375562 127.632999,90.830915 128.891058,88.894762 L130.937303,85.7455885 C132.193165,83.812816 131.643327,81.2283494 129.70525,79.9704541 L88.7735029,53.4039871 C86.8371966,52.1472409 84.2516295,52.6918879 82.9935708,54.6280409 L80.947325,57.7772145 L80.947325,57.7772145 Z" id="Rectangle-16"></path>
                    <path d="M84.9947688,93.6455321 C83.6284956,92.8250531 83.1885923,91.0493412 84.0056899,89.6902258 L94.316567,72.5396767 C95.136587,71.1757003 96.9117079,70.7367781 98.275201,71.5555876 L98.275201,71.5555876 C99.6414742,72.3760665 100.081377,74.1517785 99.2642799,75.5108939 L88.9534028,92.6614429 C88.1333828,94.0254193 86.3582619,94.4643415 84.9947688,93.6455321 L84.9947688,93.6455321 L84.9947688,93.6455321 Z" id="Rectangle-19"></path>
                    <path d="M122.237891,106.416077 L122.367487,105.855054 L122.562188,105.89998 L120.569638,103.885322 C119.283978,101.983671 117.844218,98.6211105 117.691712,96.3159255 L117.832176,93.028765 L117.780604,93.0168653 C117.858253,92.8744596 117.918904,92.7168588 117.958026,92.547499 C118.152587,91.7052353 117.740999,90.8910837 117.038718,90.7290404 C116.336438,90.5669972 115.609404,91.1184248 115.414843,91.9606885 C115.375721,92.1300483 115.361107,92.2982715 115.368436,92.460285 L115.368436,92.460285 L115.302929,92.4451699 L115.049648,93.5416349 L115.118566,97.2256399 C115.502632,99.489777 116.652188,102.993531 116.914872,103.443941 L115.813979,101.325223 C116.421985,102.495359 117.616559,104.445603 117.616559,104.445603 L116.914872,103.443941 C117.302403,103.997144 118.786592,105.901935 120.331872,107.614535 L121.112908,108.44207 C121.137127,108.466675 121.161671,108.491067 121.186532,108.515244 C121.288542,108.648093 121.416375,108.761867 121.564746,108.848115 C121.595851,108.872976 121.627294,108.897559 121.65906,108.921865 L121.65906,108.921865 L121.664058,108.900229 C121.746853,108.939204 121.83504,108.970018 121.927844,108.991432 C122.630125,109.153475 123.330872,108.715845 123.493006,108.013959 C123.65514,107.312073 123.217265,106.611719 122.514984,106.449676 C122.42218,106.428263 122.329403,106.417321 122.237891,106.416077 L122.237891,106.416077 Z M127.246952,110.243631 C127.256805,110.240201 127.266591,110.236718 127.276311,110.233183 L127.246894,110.243884 L127.246952,110.243631 L127.246952,110.243631 L127.246952,110.243631 Z" id="Wave-1"></path>
                    <path d="M114.784169,108.662283 L114.705581,108.955414 L114.41703,108.627272 C113.125863,107.0719 111.855345,105.29942 111.487367,104.733037 L112.153649,105.758564 C112.153649,105.758564 111.027904,103.767841 110.461128,102.577211 L111.487367,104.733037 C111.131993,104.070479 110.2245,100.962538 109.932605,98.9707372 L109.959164,97.1785627 C109.724799,96.8203992 109.643315,96.3262753 109.776448,95.8296922 C110.000302,94.9947278 110.746148,94.468995 111.442343,94.655435 C112.138537,94.841875 112.521445,95.6698869 112.297591,96.5048512 L112.628908,96.5935774 L112.509819,98.159214 C112.607115,100.175774 113.758275,103.171674 114.794493,104.889272 L115.569548,105.732854 L115.408225,106.334583 C115.57371,106.312595 115.746191,106.322182 115.917497,106.368058 C116.613691,106.554498 117.026844,107.269698 116.840299,107.965501 C116.653754,108.661305 115.938153,109.074226 115.241959,108.887786 C115.070653,108.84191 114.916484,108.76402 114.784169,108.662283 L114.784169,108.662283 Z M121.594416,111.883102 C121.598088,111.881923 121.601756,111.880739 121.60542,111.879549 L121.594409,111.883125 L121.594416,111.883102 L121.594416,111.883102 L121.594416,111.883102 Z" id="Wave-2"></path>
                    <path d="M92.066144,110.671271 L92.1397461,110.989897 L94.0342498,108.966235 C94.5858415,108.296645 95.3231643,107.289338 95.7106951,106.736135 L95.0090086,107.737797 C95.3120141,107.311742 96.0542382,106.126927 96.47802,105.37543 L96.126889,106.020394 C96.5348175,105.261355 96.9853777,103.937865 97.1997575,103.099597 L97.3715805,97.3251318 L97.0289966,97.4041791 C96.7196649,96.8421439 96.1449383,96.5190281 95.5858972,96.6480204 C95.0268561,96.7770128 94.6520194,97.3192295 94.6205123,97.9599094 L94.6147485,97.9612394 L94.7410008,102.210143 C94.5805266,103.064313 94.0575281,104.354157 93.6550228,105.118821 L91.1353098,107.741003 L91.376408,107.685373 L91.4911844,108.182245 C91.4035937,108.184251 91.3148955,108.195151 91.2261729,108.215623 C90.5238922,108.377666 90.0860171,109.07802 90.2481514,109.779906 C90.4102856,110.481792 91.1110323,110.919422 91.8133129,110.757379 C91.9020356,110.736907 91.9865382,110.707843 92.066144,110.671271 L92.066144,110.671271 Z" id="Wave-3"></path>
                    <path d="M98.7642278,110.223595 L98.8823818,110.735089 L99.0227322,110.58517 C99.5743238,109.91558 100.311647,108.908272 100.699177,108.35507 L99.9974909,109.356732 C100.300496,108.930677 101.042721,107.745861 101.466502,106.994365 L101.115371,107.639329 C101.5233,106.88029 101.97386,105.5568 102.18824,104.718531 L102.292286,101.221843 L102.176881,101.248471 L102.176881,101.248471 C102.168999,101.186911 102.157948,101.124948 102.143599,101.062832 C101.949038,100.220568 101.222004,99.6691408 100.519723,99.8311841 C99.8174427,99.9932273 99.4058547,100.807379 99.6004158,101.649643 C99.6193354,101.731546 99.6432901,101.8107 99.6717675,101.886715 L99.7294831,103.829078 C99.5690089,104.683248 99.0460104,105.973091 98.6435051,106.737756 L97.4711796,107.957757 C97.0011957,108.241411 96.74438,108.80414 96.8745976,109.367858 C97.0367319,110.069745 97.7374786,110.507374 98.4397592,110.345331 C98.5556133,110.318599 98.6642718,110.277217 98.7642278,110.223595 L98.7642278,110.223595 Z" id="Wave-4"></path>
                </g>
            </g>
        </g>
    </g>
</svg>