<?xml version="1.0" ?><svg height="24px" version="1.1" viewBox="0 0 24 24" width="24px" xmlns="http://www.w3.org/2000/svg" xmlns:sketch="http://www.bohemiancoding.com/sketch/ns" xmlns:xlink="http://www.w3.org/1999/xlink"><title/><desc/><defs/><g fill="none" fill-rule="evenodd" id="miu" stroke="none" stroke-width="1"><g id="Artboard-1" transform="translate(-791.000000, -623.000000)"><g id="slice" transform="translate(215.000000, 119.000000)"/><path d="M804,639.95779 C804.597801,639.595513 805,638.918391 805,638.142857 C805,636.985689 804.10457,636.047619 803,636.047619 C801.89543,636.047619 801,636.985689 801,638.142857 C801,638.918391 801.402199,639.595513 802,639.95779 L802,641.809524 C802,641.809524 802.003069,642.857143 803.001535,642.857143 C804,642.857143 804,641.809524 804,641.809524 L804,639.95779 L804,639.95779 Z M796.000872,632 C795.448106,632 795,632.465805 795,633.040838 L795,644.959162 C795,645.534001 795.444631,646 796.000872,646 L809.999128,646 C810.551895,646 811,645.534195 811,644.959162 L811,633.040838 C811,632.465999 810.555369,632 809.999128,632 L796.000872,632 L796.000872,632 Z M796,633 L796,645.047619 L810,645.047619 L810,633 L796,633 L796,633 Z M797.978516,629.216465 L797.978516,631.998047 L798.978516,631.998047 L798.978516,629.216465 C798.978516,629.216465 798.978516,625 803,625 C807.021484,625 807.036744,629.238095 807.036744,629.238095 L807.036743,631.998047 L808.036744,631.998047 L808.036744,629.238095 C808.036744,629.238095 808.036743,624 803,624 C797.978516,624 797.978516,629.216465 797.978516,629.216465 Z" fill="#000000" id="editor-lock-outline-stroke"/></g></g></svg>