<?xml version="1.0" ?><svg height="24px" version="1.1" viewBox="0 0 24 24" width="24px" xmlns="http://www.w3.org/2000/svg" xmlns:sketch="http://www.bohemiancoding.com/sketch/ns" xmlns:xlink="http://www.w3.org/1999/xlink"><title/><desc/><defs/><g fill="none" fill-rule="evenodd" id="miu" stroke="none" stroke-width="1"><g id="Artboard-1" transform="translate(-863.000000, -623.000000)"><g id="slice" transform="translate(215.000000, 119.000000)"/><path d="M876,639.95779 C876.597801,639.595513 877,638.918391 877,638.142857 C877,636.985689 876.10457,636.047619 875,636.047619 C873.89543,636.047619 873,636.985689 873,638.142857 C873,638.918391 873.402199,639.595513 874,639.95779 L874,641.809524 C874,641.809524 874.003069,642.857143 875.001535,642.857143 C876,642.857143 876,641.809524 876,641.809524 L876,639.95779 L876,639.95779 Z M868.000872,632 C867.448106,632 867,632.465805 867,633.040838 L867,644.959162 C867,645.534001 867.444631,646 868.000872,646 L881.999128,646 C882.551895,646 883,645.534195 883,644.959162 L883,633.040838 C883,632.465999 882.555369,632 881.999128,632 L868.000872,632 L868.000872,632 Z M868,633 L868,645.047619 L882,645.047619 L882,633 L868,633 L868,633 Z M870.741847,626.344974 C869.978516,627.730654 870.978516,628.072289 871.54698,626.975988 C872.069782,625.967748 873.073393,625 875,625 C879.021484,625 879.036744,629.238095 879.036744,629.238095 L879.036744,631.998047 L880.036744,631.998047 L880.036744,629.238095 C880.036744,629.238095 880.036743,624 875,624 C872.65846,624 871.40879,625.134267 870.741847,626.344974 Z" fill="#000000" id="editor-unlock-lock-outline-stroke"/></g></g></svg>